<?xml version="1.0" encoding="UTF-8"?>
<svg version="1.1" xmlns="http://www.w3.org/2000/svg" width="686" height="335">
<path d="M0 0 C25.41 0 50.82 0 77 0 C77 0.66 77 1.32 77 2 C77.56847656 2.09796875 78.13695312 2.1959375 78.72265625 2.296875 C86.89792815 3.88006622 92.94999743 7.24511951 99 13 C99 13.99 99 14.98 99 16 C99.66 16 100.32 16 101 16 C101 16.99 101 17.98 101 19 C101.66 19 102.32 19 103 19 C103.39058594 20.68222656 103.39058594 20.68222656 103.7890625 22.3984375 C105.0048886 27.25960511 106.67003964 31.91757939 108.375 36.625 C110.39595948 42.29587531 112.34591348 47.94035233 113.9375 53.75 C115.77721657 60.45010316 117.93371741 67.03210609 120.125 73.625 C120.47425537 74.68170898 120.82351074 75.73841797 121.18334961 76.82714844 C121.51729736 77.82520508 121.85124512 78.82326172 122.1953125 79.8515625 C122.64414795 81.19468506 122.64414795 81.19468506 123.10205078 82.56494141 C123.93038253 84.81121136 124.92450602 86.86544478 126 89 C126.42663286 90.73813388 126.80076859 92.48988665 127.125 94.25 C127.29257812 95.14203125 127.46015625 96.0340625 127.6328125 96.953125 C127.75398437 97.62859375 127.87515625 98.3040625 128 99 C129.65 99.33 131.3 99.66 133 100 C133.17273438 99.03449219 133.34546875 98.06898438 133.5234375 97.07421875 C136.02636045 83.93621684 139.69664544 71.18107787 143.47021484 58.36401367 C145.40882768 51.75484841 147.27250667 45.20453785 148.51171875 38.42114258 C149.53715875 33.33649833 151.02558429 28.36316929 152.4375 23.375 C152.73720703 22.29476562 153.03691406 21.21453125 153.34570312 20.1015625 C157.82169079 4.17830921 157.82169079 4.17830921 160 2 C161.35094982 1.90731001 162.70667091 1.88252674 164.06079102 1.88647461 C164.92160782 1.88655014 165.78242462 1.88662567 166.66932678 1.88670349 C167.60473801 1.89186478 168.54014923 1.89702606 169.50390625 1.90234375 C170.45692123 1.9037587 171.40993622 1.90517365 172.39183044 1.90663147 C175.44875165 1.91224848 178.50560077 1.92480384 181.5625 1.9375 C183.62955624 1.94251281 185.69661362 1.94707609 187.76367188 1.95117188 C192.84247588 1.96222344 197.9212257 1.97949945 203 2 C205.03694168 5.8341393 206.50250576 9.35177675 207.46484375 13.58203125 C209.24436739 21.0908095 211.36339318 28.48935319 213.48242188 35.90820312 C215.00883462 41.29886773 216.41311312 46.67289518 217.58178711 52.15209961 C218.07053515 54.31166405 218.73155638 56.36186696 219.5 58.4375 C220.61240567 61.63010426 221.38986301 64.73725338 222 68.0625 C222.57057672 71.13701257 223.26298572 73.91577048 224.4375 76.8125 C226.28698056 81.38949733 227.23254078 86.13091274 228.25390625 90.94921875 C228.96063809 93.83904895 229.59501013 96.37451389 231 99 C233.04105639 99.88693303 233.04105639 99.88693303 235 100 C235.18175781 99.32195312 235.36351562 98.64390625 235.55078125 97.9453125 C237.02939234 92.47066016 238.56076832 87.01955472 240.21386719 81.5949707 C240.69767474 79.99795503 241.17642809 78.39938522 241.64672852 76.79833984 C244.07696647 68.54279583 246.84689485 60.40566941 249.59570312 52.25195312 C251.84060643 45.56297978 253.98520994 38.85376384 256.04223633 32.10473633 C257.49987392 27.37958279 259.05510855 22.68883509 260.625 18 C260.9240625 17.09894531 261.223125 16.19789062 261.53125 15.26953125 C265.44028894 3.55971106 265.44028894 3.55971106 267 2 C269.8843382 1.91134792 272.74462158 1.88478704 275.62890625 1.90234375 C276.92525246 1.90446617 276.92525246 1.90446617 278.24778748 1.90663147 C281.01939292 1.91224761 283.7909188 1.92480281 286.5625 1.9375 C288.4368478 1.94251292 290.31119685 1.94707619 292.18554688 1.95117188 C296.79039544 1.96222228 301.39518421 1.9794977 306 2 C305.40722785 4.41830053 304.76558364 6.79701563 304.0625 9.1875 C303.28938542 11.96161704 302.67335648 14.6229269 302.125 17.4375 C301.29388381 21.28790546 299.92159822 24.37989216 298.078125 27.83984375 C294.89031701 34.22700975 292.84298121 41.00716469 291.4375 47.984375 C290.840815 50.73338802 289.94944231 53.35512501 289 56 C288.34 56 287.68 56 287 56 C287.04640625 56.71414062 287.0928125 57.42828125 287.140625 58.1640625 C286.97935823 61.41627563 286.11944058 63.42987779 284.75 66.375 C282.7022648 71.05142898 281.23215645 75.60862511 280 80.5625 C278.602821 86.09510441 276.78573366 90.91907775 274.30078125 96.03515625 C272.67459101 99.74169796 271.44647108 103.5117327 270.25 107.375 C270.03931885 108.05361084 269.8286377 108.73222168 269.61157227 109.43139648 C268.55190363 112.92904098 267.63918566 116.40110684 267 120 C266.34 120 265.68 120 265 120 C264.87882812 120.59167969 264.75765625 121.18335938 264.6328125 121.79296875 C264.46523438 122.58316406 264.29765625 123.37335938 264.125 124.1875 C263.88136719 125.35345703 263.88136719 125.35345703 263.6328125 126.54296875 C262.96365197 129.14112909 262.0152987 131.51956384 261 134 C259.97309555 134.0154612 259.97309555 134.0154612 258.92544556 134.03123474 C251.82063955 134.1391468 244.71596431 134.25375694 237.61132812 134.37231445 C234.95738452 134.41571248 232.3034121 134.45738388 229.64941406 134.49731445 C225.84170842 134.55489925 222.03414845 134.6186275 218.2265625 134.68359375 C217.03382721 134.70030624 215.84109192 134.71701874 214.61221313 134.73423767 C213.51122284 134.75418289 212.41023254 134.77412811 211.27587891 134.79467773 C210.30325104 134.81022202 209.33062317 134.8257663 208.32852173 134.84178162 C205.97609526 134.85130651 205.97609526 134.85130651 204 136 C201.54901986 127.00346113 199.21236116 117.98010862 196.9375 108.9375 C196.56987549 107.48633789 196.56987549 107.48633789 196.19482422 106.00585938 C194.8972501 100.82250645 193.69919407 95.6334753 192.609375 90.40234375 C190.77852181 81.7401978 188.54322692 73.19070845 186.3125 64.625 C185.89231152 63.0026732 185.4723881 61.38027771 185.05273438 59.7578125 C184.03819959 55.83774598 183.02011988 51.91861664 182 48 C181.67 48 181.34 48 181 48 C180.87496094 48.67675781 180.74992188 49.35351562 180.62109375 50.05078125 C179.63600259 54.72841539 178.30400066 59.31056793 177.03515625 63.91796875 C176.02989341 67.72485337 175.26899632 71.56349997 174.51586914 75.42700195 C173.67095631 79.64116964 172.6849649 83.81971168 171.6875 88 C171.36591919 89.35097778 171.36591919 89.35097778 171.0378418 90.72924805 C169.23481995 98.20978683 167.22385384 105.62067004 165.11328125 113.01953125 C163.14890117 119.95989044 161.56565558 126.95454991 160 134 C140.86 134 121.72 134 102 134 C100.02 128.06 98.04 122.12 96 116 C94.49736142 111.86798228 94.49736142 111.86798228 92.95703125 107.75 C92.13199736 105.37929038 91.40768562 103.01364556 90.703125 100.60546875 C88.67325931 93.76489107 86.29092061 87.04691672 83.9375 80.3125 C83.0485289 77.76769637 82.16224094 75.22201008 81.27734375 72.67578125 C80.88796631 71.56114502 80.49858887 70.44650879 80.09741211 69.2980957 C78.96326679 65.88960424 77.98033658 62.4554561 77 59 C76.46372725 57.36711823 75.91295652 55.73888268 75.34375 54.1171875 C75.04339844 53.25996094 74.74304688 52.40273437 74.43359375 51.51953125 C74.12550781 50.64683594 73.81742187 49.77414063 73.5 48.875 C73.19191406 47.99457031 72.88382812 47.11414063 72.56640625 46.20703125 C71.12411123 42.10299006 69.66777916 38.01934777 68 34 C61.88266884 33.10495423 55.94722015 32.85337693 49.76953125 32.8671875 C48.33935921 32.86575241 48.33935921 32.86575241 46.8802948 32.86428833 C44.87763401 32.86361152 42.87497096 32.8654308 40.87231445 32.86962891 C37.8113107 32.87500209 34.75045247 32.86965782 31.68945312 32.86328125 C29.73697884 32.86394177 27.78450465 32.8652224 25.83203125 32.8671875 C24.92048782 32.86516327 24.0089444 32.86313904 23.06977844 32.86105347 C19.58532144 32.87390405 16.42907565 32.90910394 13.01049805 33.63330078 C12.34703369 33.75431152 11.68356934 33.87532227 11 34 C9 32 9 32 8.875 28.875 C8.91625 27.92625 8.9575 26.9775 9 26 C8.34 26 7.68 26 7 26 C6.95875 25.05125 6.9175 24.1025 6.875 23.125 C6.1322459 17.78372417 3.14725844 13.2824636 0 9 C-0.99 8.34 -1.98 7.68 -3 7 C-3 6.34 -3 5.68 -3 5 C-3.66 5 -4.32 5 -5 5 C-5 4.01 -5 3.02 -5 2 C-3.35 2 -1.7 2 0 2 C0 1.34 0 0.68 0 0 Z " fill="#F9F9F9" transform="translate(274,62)"/>
<path d="M0 0 C0.84621414 -0.00281982 1.69242828 -0.00563965 2.56428528 -0.00854492 C3.48991776 -0.00652069 4.41555023 -0.00449646 5.36923218 -0.00241089 C6.34698105 -0.00416321 7.32472992 -0.00591553 8.33210754 -0.00772095 C11.57806149 -0.01213546 14.82396122 -0.00919968 18.06991577 -0.00582886 C20.33418793 -0.00650277 22.59846002 -0.00747353 24.86273193 -0.00872803 C29.62255539 -0.01020508 34.38236012 -0.00805301 39.1421814 -0.00338745 C45.19945612 0.0022644 51.2566861 -0.00093999 57.31395912 -0.00695992 C62.00014573 -0.01060437 66.68632206 -0.00940848 71.372509 -0.00683212 C73.60249207 -0.00617117 75.83247611 -0.00696174 78.06245804 -0.00931168 C125.49000987 -0.04826689 125.49000987 -0.04826689 136.89022827 9.91604614 C143.6425574 17.15892909 145.91432676 24.53934111 147.27304077 34.17385864 C148.10772206 38.49590697 149.82143376 42.24018692 151.84335327 46.12698364 C153.33222046 46.21786255 153.33222046 46.21786255 154.85116577 46.31057739 C156.2235638 46.39517727 157.5959595 46.47981478 158.96835327 46.56448364 C159.61417358 46.60380005 160.2599939 46.64311646 160.92538452 46.68362427 C164.27924817 46.8912444 167.6308431 47.11083128 170.98153687 47.36550903 C179.7243399 48.02705644 188.45536436 48.41731342 197.21835327 48.68948364 C198.55169467 48.73285622 199.88502808 48.77647505 201.21835327 48.82034302 C204.42661716 48.92496032 207.63493784 49.02714202 210.84335327 49.12698364 C211.0975 49.91879028 211.0975 49.91879028 211.35678101 50.72659302 C213.63159822 57.69431039 216.26844328 64.49890781 218.9703064 71.31057739 C220.52707994 75.31875428 221.94262042 79.19322289 222.78085327 83.41604614 C224.07963341 89.82988017 226.52069778 95.87706011 228.78085327 102.00198364 C236.84335327 123.90100111 236.84335327 123.90100111 236.84335327 131.12698364 C234.20335327 131.45698364 231.56335327 131.78698364 228.84335327 132.12698364 C228.84335327 132.78698364 228.84335327 133.44698364 228.84335327 134.12698364 C199.14335327 134.12698364 169.44335327 134.12698364 138.84335327 134.12698364 C138.84335327 133.46698364 138.84335327 132.80698364 138.84335327 132.12698364 C137.89460327 132.20948364 136.94585327 132.29198364 135.96835327 132.37698364 C129.81150716 132.37698364 124.29812812 129.57753242 119.09335327 126.50198364 C112.89531273 119.95960751 109.69051747 113.03921869 109.74569702 104.04495239 C109.74819458 103.20472534 109.75069214 102.36449829 109.75326538 101.49880981 C109.76236938 100.44798218 109.77147339 99.39715454 109.78085327 98.31448364 C109.80147827 94.95260864 109.82210327 91.59073364 109.84335327 88.12698364 C122.05335327 88.12698364 134.26335327 88.12698364 146.84335327 88.12698364 C147.17335327 91.09698364 147.50335327 94.06698364 147.84335327 97.12698364 C149.45711916 100.18461615 149.45711916 100.18461615 151.64291382 100.79251099 C165.98851465 102.97308051 181.1671738 102.30566158 195.65985107 101.92990112 C197.02532208 101.89479925 198.39091656 101.86419478 199.7565918 101.83822632 C201.67911841 101.7988234 203.60113967 101.73676581 205.52304077 101.67385864 C206.62373901 101.64130981 207.72443726 101.60876099 208.85848999 101.57522583 C212.21064442 101.07182688 214.15244242 100.16869935 216.84335327 98.12698364 C217.96412796 94.76465959 217.87338439 92.38725337 217.46835327 88.87698364 C216.18024716 86.05531445 216.18024716 86.05531445 214.10935974 85.44070435 C207.9451216 84.16004004 201.93790491 83.7362139 195.65194702 83.56448364 C194.58960342 83.52766479 193.52725983 83.49084595 192.432724 83.45291138 C189.04897565 83.33632482 185.66502137 83.23061274 182.28085327 83.12698364 C169.11517059 82.71407881 155.95613597 82.25738341 142.81600952 81.31448364 C141.85730453 81.2565564 140.89859955 81.19862915 139.9108429 81.13894653 C132.49374613 80.5526348 125.34046881 78.89553344 119.40585327 74.19729614 C116.26631308 70.28856861 114.03132234 67.09485431 112.84335327 62.12698364 C112.53140015 61.25686646 112.21944702 60.38674927 111.89804077 59.49026489 C111.08521006 56.89823805 110.53207449 54.58412743 110.08944702 51.92776489 C109.95602905 51.1936438 109.82261108 50.45952271 109.68515015 49.70315552 C109.41438793 48.18714871 109.1723844 46.66573904 108.95858765 45.14065552 C108.51030764 42.84245985 107.98410128 41.172091 106.84335327 39.12698364 C99.84528073 34.66351106 90.47991011 35.74407996 82.52694702 35.83401489 C81.0600783 35.83962081 79.5932039 35.84388619 78.12632751 35.84687805 C74.29414951 35.85824863 70.46232094 35.88764699 66.63027954 35.92098999 C62.70851364 35.95186041 58.78669043 35.96541939 54.86483765 35.98049927 C47.19085145 36.01252564 39.51715161 36.06362556 31.84335327 36.12698364 C31.008298 43.82131581 30.70702001 51.4023864 30.74569702 59.13870239 C30.7467041 60.11053467 30.74771118 61.08236694 30.74874878 62.08364868 C30.75392001 65.66060594 30.76788046 69.23754617 30.78085327 72.81448364 C30.80147827 80.83760864 30.82210327 88.86073364 30.84335327 97.12698364 C66.48335327 96.63198364 66.48335327 96.63198364 102.84335327 96.12698364 C103.83335327 103.38698364 104.82335327 110.64698364 105.84335327 118.12698364 C110.10631378 125.61480366 110.10631378 125.61480366 113.84335327 129.12698364 C113.84335327 130.11698364 113.84335327 131.10698364 113.84335327 132.12698364 C111.20335327 132.12698364 108.56335327 132.12698364 105.84335327 132.12698364 C105.51335327 132.78698364 105.18335327 133.44698364 104.84335327 134.12698364 C104.51335327 133.79698364 104.18335327 133.46698364 103.84335327 133.12698364 C102.40165864 133.01930538 100.95477469 132.98017412 99.5091095 132.96876526 C98.57571715 132.95899123 97.64232481 132.94921721 96.68064785 132.939147 C95.64435773 132.93337674 94.60806761 132.92760649 93.54037476 132.92166138 C92.44000161 132.91162866 91.33962847 132.90159594 90.20591068 132.89125919 C86.62544459 132.8597455 83.04496747 132.83505019 79.46444702 132.81057739 C77.26135893 132.79218581 75.05827449 132.77334979 72.85519409 132.75405884 C64.66379057 132.68546934 56.47231665 132.62550756 48.28085327 132.56448364 C29.98647827 132.42010864 11.69210327 132.27573364 -7.15664673 132.12698364 C-7.15664673 88.89698364 -7.15664673 45.66698364 -7.15664673 1.12698364 C-4.41552707 0.21327709 -2.81979858 0.00144701 0 0 Z " fill="#F9F9F9" transform="translate(131.15664672851563,63.873016357421875)"/>
<path d="M0 0 C2.64 0 5.28 0 8 0 C9.29231465 3.70810784 10.5837362 7.41652611 11.875 11.125 C12.23980469 12.17171875 12.60460937 13.2184375 12.98046875 14.296875 C13.33496094 15.31523437 13.68945312 16.33359375 14.0546875 17.3828125 C14.37937012 18.31496582 14.70405273 19.24711914 15.03857422 20.20751953 C16.04543645 23.13197107 17.02648307 26.06429721 18 29 C18.29769287 28.15703369 18.59538574 27.31406738 18.90209961 26.44555664 C20.00496723 23.32690285 21.11037196 20.20917319 22.2175293 17.09204102 C22.69674565 15.74116765 23.17493931 14.38993105 23.65209961 13.03833008 C24.33701135 11.09881366 25.02555629 9.16062119 25.71484375 7.22265625 C26.12855225 6.05484619 26.54226074 4.88703613 26.96850586 3.68383789 C28 1 28 1 29 0 C31.33297433 -0.04092937 33.66705225 -0.04241723 36 0 C36.87127913 4.665971 37.27896042 9.29115316 37.53515625 14.0234375 C37.57813339 14.76961334 37.62111053 15.51578918 37.66539001 16.28457642 C37.8008112 18.6478891 37.93172553 21.0114261 38.0625 23.375 C38.15399831 24.98569407 38.24579216 26.59637138 38.33789062 28.20703125 C38.56201292 32.13783521 38.78209598 36.06884662 39 40 C37.02 40 35.04 40 33 40 C31.80490837 33.90503266 31.64426036 27.82445104 31.39453125 21.63671875 C31.33845703 20.40115234 31.33845703 20.40115234 31.28125 19.140625 C31.25095703 18.39329102 31.22066406 17.64595703 31.18945312 16.87597656 C31.10309233 14.91028455 31.10309233 14.91028455 30 13 C29.7326001 13.78238037 29.4652002 14.56476074 29.18969727 15.37084961 C27.98364791 18.89410746 26.77313635 22.41581581 25.5625 25.9375 C24.93118164 27.78504883 24.93118164 27.78504883 24.28710938 29.66992188 C23.88427734 30.83974609 23.48144531 32.00957031 23.06640625 33.21484375 C22.69459229 34.29886475 22.32277832 35.38288574 21.93969727 36.49975586 C21 39 21 39 20 40 C18.35 40 16.7 40 15 40 C12.03 31.09 9.06 22.18 6 13 C5.3832295 20.38886188 5.3832295 20.38886188 4.77368164 27.77832031 C4.69496826 28.70225586 4.61625488 29.62619141 4.53515625 30.578125 C4.456604 31.52075195 4.37805176 32.46337891 4.29711914 33.43457031 C4.03387689 35.70749522 3.61768892 37.80075595 3 40 C1.35 40 -0.3 40 -2 40 C-2.13757237 30.84092809 -1.73860003 21.81519908 -1 12.6875 C-0.90460938 11.45837891 -0.80921875 10.22925781 -0.7109375 8.96289062 C-0.47840758 5.97488112 -0.24137252 2.98730591 0 0 Z " fill="#E6E6E6" transform="translate(318,228)"/>
<path d="M0 0 C1.98 0 3.96 0 6 0 C8.31 9.57 10.62 19.14 13 29 C15.26114421 20.20498126 15.26114421 20.20498126 17.51733398 11.40869141 C17.79907471 10.31733887 18.08081543 9.22598633 18.37109375 8.1015625 C18.65911865 6.98088379 18.94714355 5.86020508 19.24389648 4.70556641 C20 2 20 2 21 0 C22.98 0 24.96 0 27 0 C30.25244638 8.78160523 32.05768893 17.86029256 34 27 C35.67486598 23.92835899 36.64263503 20.96360205 37.5078125 17.578125 C37.77207031 16.55332031 38.03632813 15.52851563 38.30859375 14.47265625 C38.57800781 13.40917969 38.84742188 12.34570312 39.125 11.25 C39.40214844 10.17105469 39.67929687 9.09210938 39.96484375 7.98046875 C40.64727995 5.32132079 41.32550656 2.66117167 42 0 C43.98 0 45.96 0 48 0 C46.63798972 8.74530214 44.40717696 17.13355257 41.9375 25.625 C41.56925193 26.91524777 41.20141099 28.20561181 40.83398438 29.49609375 C38.13508555 38.86491445 38.13508555 38.86491445 37 40 C35.00041636 40.04080783 32.99954746 40.04254356 31 40 C30.39282001 37.77161861 29.78927305 35.5423427 29.1875 33.3125 C28.85105469 32.07113281 28.51460938 30.82976562 28.16796875 29.55078125 C26.67317307 23.72657736 25.35207266 17.85898153 24 12 C21.36 21.24 18.72 30.48 16 40 C13.69 40 11.38 40 9 40 C7.71221521 34.9478041 6.43064491 29.89408779 5.15478516 24.83886719 C4.7199639 23.11968577 4.28345341 21.40093067 3.84521484 19.68261719 C3.21526653 17.21139138 2.59142711 14.73869155 1.96875 12.265625 C1.77188599 11.49881409 1.57502197 10.73200317 1.37219238 9.94195557 C0.5086877 6.48938468 0 3.58348969 0 0 Z " fill="#E5E5E5" transform="translate(422,228)"/>
<path d="M0 0 C20 0 20 0 28 4 C33.43384037 9.71249885 33.34398057 14.87441573 33.28125 22.47265625 C32.80010925 28.5069632 30.85094497 32.14905503 26.625 36.375 C17.74341616 41.87312333 11.2962221 40 0 40 C0 26.8 0 13.6 0 0 Z M6 5 C5.97534378 9.25414623 5.95716101 13.50825498 5.94506836 17.76245117 C5.94002899 19.21070073 5.93319747 20.65894517 5.92456055 22.10717773 C5.91247753 24.18474588 5.90676789 26.26224697 5.90234375 28.33984375 C5.89710693 29.59144287 5.89187012 30.84304199 5.88647461 32.13256836 C5.67112965 34.89732294 5.67112965 34.89732294 7 36 C13.61060177 36.06331994 18.71119377 34.99358837 24 31 C27.84714814 25.91183634 27.68369883 20.12519224 27 14 C25.30969657 9.8187231 22.89161813 7.27011057 19 5 C12.36605834 3.62440222 12.36605834 3.62440222 6 5 Z " fill="#E9E9E9" transform="translate(65,228)"/>
<path d="M0 0 C4.972208 2.2680247 7.3020298 5.30353336 10 10 C12.17373814 16.52121443 12.27008434 25.19252633 9.5 31.5625 C6.90785534 35.74773357 3.64226667 38.36730654 -1 40 C-6.5086379 40.82666146 -11.94131391 40.95329807 -17 38.375 C-21.08195989 35.14344842 -23.35781089 31.92656734 -25 27 C-25.14648082 24.73236426 -25.2209626 22.45967634 -25.25 20.1875 C-25.28867187 18.38345703 -25.28867187 18.38345703 -25.328125 16.54296875 C-24.89121007 11.82532782 -23.49986894 8.59340197 -20.24609375 5.13671875 C-19.64925781 4.65847656 -19.05242187 4.18023437 -18.4375 3.6875 C-17.83808594 3.19636719 -17.23867188 2.70523438 -16.62109375 2.19921875 C-11.82041826 -1.35212433 -5.71013613 -0.49381202 0 0 Z M-17 10 C-19.81691922 14.4814624 -19.52648868 19.87496171 -19 25 C-17.35830192 29.66587876 -15.3076205 32.5111526 -11 35 C-5.8936839 35.73309049 -5.8936839 35.73309049 -1.22265625 34.01171875 C2.68321741 30.92712904 4.73997682 28.14367946 5.3359375 23.23046875 C5.42130305 16.58049247 5.15564899 12.30999593 1 7 C-1.91081503 4.60897337 -5.24867847 4.52002145 -8.96875 4.6171875 C-12.7246102 5.32502269 -14.41063007 7.22567507 -17 10 Z " fill="#E4E4E4" transform="translate(283,228)"/>
<path d="M0 0 C18 0 18 0 24 4 C25.74572319 7.49144638 25.5830779 11.19138475 25 15 C23.59146791 17.70871555 21.99836404 19.65192226 20 22 C20.67482422 22.50466797 20.67482422 22.50466797 21.36328125 23.01953125 C23.73456943 25.88884654 24.33693657 29.14293411 25.1875 32.6875 C25.36474609 33.38939453 25.54199219 34.09128906 25.72460938 34.81445312 C26.15909219 36.5406416 26.58080792 38.2700347 27 40 C24.69 40 22.38 40 20 40 C19.76925781 39.09636719 19.53851562 38.19273437 19.30078125 37.26171875 C18.97464844 36.08222656 18.64851562 34.90273438 18.3125 33.6875 C17.99925781 32.51574219 17.68601562 31.34398437 17.36328125 30.13671875 C15.75769582 26.4424921 14.6542227 25.56762409 11 24 C9.35 23.67 7.7 23.34 6 23 C6 28.61 6 34.22 6 40 C4.02 40 2.04 40 0 40 C0 26.8 0 13.6 0 0 Z M7 4 C5.63467451 5.13701597 5.63467451 5.13701597 5.90234375 8.16015625 C5.91394531 9.44792969 5.92554688 10.73570312 5.9375 12.0625 C5.94652344 13.35285156 5.95554687 14.64320313 5.96484375 15.97265625 C5.97644531 16.97167969 5.98804688 17.97070312 6 19 C7.60517097 18.91266424 9.20921662 18.80447776 10.8125 18.6875 C11.70582031 18.62949219 12.59914063 18.57148438 13.51953125 18.51171875 C16.35973838 17.92578626 17.32497949 17.34066384 19 15 C19.59685 10.39219248 19.59685 10.39219248 17.765625 6.328125 C15.57638226 4.68134948 14.08801743 4.47976695 11.375 4.25 C10.57835937 4.17265625 9.78171875 4.0953125 8.9609375 4.015625 C7.99027344 4.00789062 7.99027344 4.00789062 7 4 Z " fill="#EBEBEB" transform="translate(544,228)"/>
<path d="M0 0 C1.134375 0.020625 2.26875 0.04125 3.4375 0.0625 C6.71677325 7.92484032 9.50090331 15.91833211 12.1875 24 C12.59871094 25.21751953 13.00992188 26.43503906 13.43359375 27.68945312 C13.82160156 28.85283203 14.20960938 30.01621094 14.609375 31.21484375 C14.9609668 32.26663818 15.31255859 33.31843262 15.67480469 34.40209961 C16.4375 37.0625 16.4375 37.0625 16.4375 40.0625 C14.4575 40.0625 12.4775 40.0625 10.4375 40.0625 C9.7666288 38.4392313 9.10092971 36.81382422 8.4375 35.1875 C8.06625 34.28257812 7.695 33.37765625 7.3125 32.4453125 C6.4375 30.0625 6.4375 30.0625 6.4375 28.0625 C0.0025 28.5575 0.0025 28.5575 -6.5625 29.0625 C-7.8825 32.6925 -9.2025 36.3225 -10.5625 40.0625 C-12.5425 40.0625 -14.5225 40.0625 -16.5625 40.0625 C-15.07256146 32.36590319 -12.69557822 25.03395931 -10.1940918 17.62109375 C-9.49273641 15.54095706 -8.79962665 13.45819745 -8.10742188 11.375 C-4.32520097 0.07588072 -4.32520097 0.07588072 0 0 Z M-0.5625 7.0625 C-1.39948386 9.51964547 -2.23222424 11.97808857 -3.0625 14.4375 C-3.30097656 15.13617188 -3.53945313 15.83484375 -3.78515625 16.5546875 C-5.09985912 20.22653079 -5.09985912 20.22653079 -5.5625 24.0625 C-1.9325 24.0625 1.6975 24.0625 5.4375 24.0625 C3.7875 18.4525 2.1375 12.8425 0.4375 7.0625 C0.1075 7.0625 -0.2225 7.0625 -0.5625 7.0625 Z " fill="#E9E9E9" transform="translate(504.5625,227.9375)"/>
<path d="M0 0 C7.26 0 14.52 0 22 0 C22 1.65 22 3.3 22 5 C16.72 5 11.44 5 6 5 C6 8.96 6 12.92 6 17 C10.95 17 15.9 17 21 17 C21 18.65 21 20.3 21 22 C16.05 22 11.1 22 6 22 C6 26.29 6 30.58 6 35 C11.61 35 17.22 35 23 35 C23 36.65 23 38.3 23 40 C15.41 40 7.82 40 0 40 C0 26.8 0 13.6 0 0 Z " fill="#EBEBEB" transform="translate(593,228)"/>
<path d="M0 0 C7.26 0 14.52 0 22 0 C22 1.65 22 3.3 22 5 C16.72 5 11.44 5 6 5 C6 8.96 6 12.92 6 17 C10.95 17 15.9 17 21 17 C21 18.65 21 20.3 21 22 C16.05 22 11.1 22 6 22 C6 26.29 6 30.58 6 35 C11.61 35 17.22 35 23 35 C23 36.65 23 38.3 23 40 C15.41 40 7.82 40 0 40 C0 26.8 0 13.6 0 0 Z " fill="#EBEBEB" transform="translate(381,228)"/>
<path d="M0 0 C7.26 0 14.52 0 22 0 C22 1.65 22 3.3 22 5 C16.72 5 11.44 5 6 5 C6 8.96 6 12.92 6 17 C10.95 17 15.9 17 21 17 C21 18.65 21 20.3 21 22 C16.05 22 11.1 22 6 22 C6 26.29 6 30.58 6 35 C11.61 35 17.22 35 23 35 C23 36.65 23 38.3 23 40 C15.41 40 7.82 40 0 40 C0 26.8 0 13.6 0 0 Z " fill="#EBEBEB" transform="translate(121,228)"/>
<path d="M0 0 C1.98 0 3.96 0 6 0 C7.29418498 3.85332561 8.58489426 7.70780691 9.875 11.5625 C10.23980469 12.64853516 10.60460937 13.73457031 10.98046875 14.85351562 C11.33496094 15.91376953 11.68945312 16.97402344 12.0546875 18.06640625 C12.37937012 19.03521729 12.70405273 20.00402832 13.03857422 21.00219727 C14.10002328 24.31188062 15.04514436 27.65800528 16 31 C19.3 20.77 22.6 10.54 26 0 C28.31 0 30.62 0 33 0 C31.33150055 5.05499743 29.65903605 10.10865901 27.98291016 15.16113281 C27.41346262 16.87952259 26.84509344 18.59827013 26.27783203 20.31738281 C25.46150539 22.79066668 24.64128839 25.2626311 23.8203125 27.734375 C23.56814972 28.50118591 23.31598694 29.26799683 23.05618286 30.05804443 C21.90987287 33.49769563 20.76385319 36.82360048 19 40 C16.69 40 14.38 40 12 40 C10.2853908 34.78739043 8.57654871 29.57293954 6.87304688 24.35668945 C6.2926024 22.58208112 5.71057938 20.8079883 5.12695312 19.03442383 C4.28881934 16.48652564 3.45636134 13.93683353 2.625 11.38671875 C2.23127197 10.19594978 2.23127197 10.19594978 1.82958984 8.98112488 C0.82426476 5.88232071 0 3.27972911 0 0 Z " fill="#E6E6E6" transform="translate(161,228)"/>
<path d="M0 0 C1.74796875 -0.00386719 1.74796875 -0.00386719 3.53125 -0.0078125 C6.5 0.125 6.5 0.125 8.5 1.125 C8.17 2.775 7.84 4.425 7.5 6.125 C6.23542969 6.10759766 6.23542969 6.10759766 4.9453125 6.08984375 C3.84960938 6.08082031 2.75390625 6.07179687 1.625 6.0625 C0.53445312 6.05089844 -0.55609375 6.03929687 -1.6796875 6.02734375 C-4.45177546 5.92755697 -4.45177546 5.92755697 -6.5 7.125 C-6.5 9.105 -6.5 11.085 -6.5 13.125 C-5.14455078 13.81335938 -5.14455078 13.81335938 -3.76171875 14.515625 C-2.5700523 15.13491623 -1.37866034 15.75473585 -0.1875 16.375 C0.98425781 16.97828125 2.15601563 17.5815625 3.36328125 18.203125 C7.64657911 20.82751173 9.12245459 22.66875342 10.375 27.5 C10.5212283 31.74062058 9.87823324 33.63692459 7.5 37.125 C3.60209765 40.04325255 0.76070953 40.51015553 -4.0625 40.4375 C-5.17753906 40.43363281 -6.29257813 40.42976563 -7.44140625 40.42578125 C-10.3460124 40.1401431 -12.04100026 39.6340683 -14.5 38.125 C-14.17 36.475 -13.84 34.825 -13.5 33.125 C-12.79488281 33.28871094 -12.08976563 33.45242188 -11.36328125 33.62109375 C-8.40341312 34.14199824 -5.68938727 34.22366732 -2.6875 34.1875 C-1.71167969 34.17847656 -0.73585937 34.16945313 0.26953125 34.16015625 C1.00558594 34.14855469 1.74164063 34.13695312 2.5 34.125 C3.44607807 31.37538489 3.44607807 31.37538489 3.5 28.125 C0.21969274 23.48732422 -4.185086 21.61802005 -9.29296875 19.3359375 C-11.5 18.125 -11.5 18.125 -13.5 15.125 C-14.04531842 12.05973649 -14.04325893 9.19091671 -13.5 6.125 C-9.26664804 0.77760805 -6.60774671 -0.01461891 0 0 Z " fill="#E2E2E2" transform="translate(226.5,227.875)"/>
</svg>
